<svg width="221.000000" height="238.665527" viewBox="0 0 221 238.666" fill="none" xmlns="http://www.w3.org/2000/svg" xmlns:xlink="http://www.w3.org/1999/xlink">
	<desc>
			Created with Pixso.
	</desc>
	<defs/>
	<path id="Subtract" d="M155.264 233.161C143.924 236.737 131.854 238.666 119.333 238.666C53.4271 238.666 0 185.239 0 119.333C0 53.427 53.4271 0 119.333 0C162.317 0 199.992 22.7261 221 56.8181L215.8 54.2551Q209.594 45.0747 201.593 37.073Q193.032 28.5127 183.122 22.0076L183.122 22.0071Q174.391 16.2764 164.614 12.1409Q154.997 8.073 144.972 5.81567L144.972 5.81543Q132.469 3 119.333 3Q106.196 3 93.6928 5.81567Q83.6685 8.07324 74.0518 12.1409Q64.2746 16.2761 55.5445 22.0066L55.5442 22.0068L55.5441 22.0071Q45.6339 28.5122 37.0731 37.073Q28.5122 45.634 22.0069 55.5442Q16.2762 64.2744 12.1407 74.0518Q8.0733 83.6682 5.8158 93.6924L5.81512 93.6953Q3 106.197 3 119.333Q3 132.47 5.81567 144.973Q8.07324 154.997 12.1407 164.614Q16.2758 174.39 22.0056 183.119L22.0057 183.12Q28.5114 193.031 37.0731 201.593Q45.6342 210.154 55.5448 216.659L55.5454 216.659Q64.2751 222.39 74.0518 226.525Q83.6681 230.592 93.6921 232.85L93.6973 232.851Q106.198 235.666 119.333 235.666Q132.469 235.666 144.971 232.85L144.976 232.849Q148.175 232.129 151.333 231.224L155.264 233.161Z" clip-rule="evenodd" fill="#8C9775" fill-opacity="1.000000" fill-rule="evenodd"/>
</svg>
